<svg width="448" height="448" xmlns="http://www.w3.org/2000/svg">

 <g>
  <title>background</title>
  <rect fill="none" id="canvas_background" height="450" width="450" y="-1" x="-1"/>
 </g>
 <g>
  <title>Layer 1</title>
  <path id="svg_1" d="m400,448l-352,0c-26.51,0 -48,-21.49 -48,-48l0,-352c0,-26.51 21.49,-48 48,-48l352,0c26.51,0 48,21.49 48,48l0,352c0,26.51 -21.49,48 -48,48zm-204.686,-98.059l184,-184c6.248,-6.248 6.248,-16.379 0,-22.627l-22.627,-22.627c-6.248,-6.248 -16.379,-6.249 -22.628,0l-150.059,150.058l-70.059,-70.059c-6.248,-6.248 -16.379,-6.248 -22.628,0l-22.627,22.627c-6.248,6.248 -6.248,16.379 0,22.627l104,104c6.249,6.25 16.379,6.25 22.628,0.001z"/>
 </g>
</svg>