<?xml version="1.0" encoding="utf-8"?>
<!-- Generator: Adobe Illustrator 23.0.2, SVG Export Plug-In . SVG Version: 6.00 Build 0)  -->
<svg version="1.1" id="Layer_1" xmlns="http://www.w3.org/2000/svg" xmlns:xlink="http://www.w3.org/1999/xlink" x="0px" y="0px"
	 viewBox="0 0 81 89" style="enable-background:new 0 0 81 89;" xml:space="preserve">
<style type="text/css">
	.st0{fill-rule:evenodd;clip-rule:evenodd;fill:#74AE43;}
	.st1{fill:#FFFFFF;}
</style>
<title>Group 12</title>
<desc>Created with Sketch.</desc>
<g id="Job-Manager">
	<g id="Data-Explorer---Search-dropdown" transform="translate(-1164.000000, -1365.000000)">
		<g id="Group-12" transform="translate(1164.000000, 1365.000000)">
			<g id="Group-9">
				<g id="scroll">
					<path id="Fill-7" class="st0" d="M0,27.9v33.2c0,4,2.2,7.8,5.7,9.8l29,16.6c3.5,2,7.9,2,11.5,0l29-16.6c3.5-2,5.7-5.8,5.7-9.8
						V27.9c0-4-2.2-7.8-5.7-9.8l-29-16.6c-3.5-2-7.9-2-11.5,0l-29,16.6C2.2,20.1,0,23.9,0,27.9"/>
				</g>
			</g>
			<path id="Shape" class="st1" d="M46.3,51.6c-0.4,0-0.7-0.1-1-0.4l-3.5-3.6v17c0,0.8-0.6,1.4-1.4,1.4s-1.4-0.6-1.4-1.4v-17
				l-3.5,3.5c-0.5,0.5-1.4,0.4-1.9-0.1c-0.5-0.5-0.5-1.3-0.1-1.9l6.9-6.9l6.9,6.9c0.4,0.4,0.5,1,0.3,1.5
				C47.4,51.3,46.9,51.6,46.3,51.6z M57.3,39.3c4.4,2.5,6.6,7.6,5.3,12.5S57,60.1,52,60.1h-7.4v-2.8H52c3.9,0,7.3-2.7,8.1-6.5
				c0.8-3.8-1.1-7.8-4.7-9.4L54.5,41l0.1-1c0-0.4,0-0.7,0-1.1c-0.2-6.3-5.4-11.2-11.6-11.1c-4.8-0.1-9.2,2.9-11,7.5l-0.3,0.9h-0.9
				c-5.5,0.5-9.7,5.2-9.6,10.7c0.1,5.6,4.4,10.1,9.9,10.4h5.1v2.8h-5.1c-3.5,0-6.9-1.4-9.3-3.9S18,50.3,18,46.8
				c0-6.8,5.1-12.6,11.9-13.3C32.2,28.3,37.4,25,43,25c7.7-0.1,14.1,6,14.3,13.9C57.3,39,57.3,39.2,57.3,39.3z"/>
		</g>
	</g>
</g>
</svg>
