<svg xmlns="http://www.w3.org/2000/svg" viewBox="0 0 81 89">
  <path d="M0 27.9v33.2c0 4 2.2 7.8 5.7 9.8l29 16.6c3.5 2 7.9 2 11.5 0l29-16.6c3.5-2 5.7-5.8 5.7-9.8V27.9c0-4-2.2-7.8-5.7-9.8l-29-16.6c-3.5-2-7.9-2-11.5 0l-29 16.6c-3.5 2-5.7 5.8-5.7 9.8" fill-rule="evenodd" clip-rule="evenodd" fill="#74ae43"/>
  <path d="M46.3 51.6c-.4 0-.7-.1-1-.4l-3.5-3.6v17c0 .8-.6 1.4-1.4 1.4s-1.4-.6-1.4-1.4v-17l-3.5 3.5c-.5.5-1.4.4-1.9-.1s-.5-1.3-.1-1.9l6.9-6.9 6.9 6.9c.4.4.5 1 .3 1.5-.2.7-.7 1-1.3 1zm11-12.3c4.4 2.5 6.6 7.6 5.3 12.5S57 60.1 52 60.1h-7.4v-2.8H52c3.9 0 7.3-2.7 8.1-6.5a8.4 8.4 0 0 0-4.7-9.4l-.9-.4.1-1v-1.1c-.2-6.3-5.4-11.2-11.6-11.1-4.8-.1-9.2 2.9-11 7.5l-.3.9h-.9c-5.5.5-9.7 5.2-9.6 10.7.1 5.6 4.4 10.1 9.9 10.4h5.1v2.8h-5.1c-3.5 0-6.9-1.4-9.3-3.9S18 50.3 18 46.8c0-6.8 5.1-12.6 11.9-13.3C32.2 28.3 37.4 25 43 25c7.7-.1 14.1 6 14.3 13.9v.4z" fill="#fff"/>
</svg>
